<svg id='Running_Shoe_24' width='24' height='24' viewBox='0 0 24 24' xmlns='http://www.w3.org/2000/svg' xmlns:xlink='http://www.w3.org/1999/xlink'><rect width='24' height='24' stroke='none' fill='#000000' opacity='0'/>


<g transform="matrix(0.42 0 0 0.42 12 12)" >
<g style="" >
<g transform="matrix(1 0 0 1 -0.02 4.95)" >
<linearGradient id="SVGID_a9FyWWdZBWwgkShGOE5KJa_1" gradientUnits="userSpaceOnUse" gradientTransform="matrix(0.85 0.52 -0.52 0.85 17.21 -8.82)" x1="34.112" y1="-1.287" x2="17.674" y2="56.434">
<stop offset="39.6%" style="stop-color:rgb(56,56,56);stop-opacity: 1"/>
<stop offset="41.8%" style="stop-color:rgb(49,49,49);stop-opacity: 1"/>
<stop offset="51.800000000000004%" style="stop-color:rgb(22,22,22);stop-opacity: 1"/>
<stop offset="60.6%" style="stop-color:rgb(6,6,6);stop-opacity: 1"/>
<stop offset="67.4%" style="stop-color:rgb(0,0,0);stop-opacity: 1"/>
</linearGradient>
<path style="stroke: none; stroke-width: 1; stroke-dasharray: none; stroke-linecap: butt; stroke-dashoffset: 0; stroke-linejoin: miter; stroke-miterlimit: 4; fill: url(#SVGID_a9FyWWdZBWwgkShGOE5KJa_1); fill-rule: nonzero; opacity: 1;" transform=" translate(-23.98, -28.95)" d="M 24.787 36.409 C 22.134999999999998 34.775 19.72 33.086999999999996 18.598 32.211999999999996 C 17.689 31.502999999999997 15.809999999999999 30.341999999999995 13.82 29.111999999999995 C 10.928 27.325999999999993 7.649 25.300999999999995 6.162 23.935999999999993 C 3.469 21.461999999999993 4.689 18.700999999999993 4.717 18.578999999999994 C 4.717 18.578999999999994 10.736 16.494999999999994 11.065 16.59499999999999 L 43.318 36.77399999999999 L 43.549 37.62599999999998 C 43.406 38.83099999999998 43.042 39.79799999999998 42.048 40.35199999999998 C 39.269000000000005 41.899999999999984 35.629000000000005 41.246999999999986 33.199 40.579999999999984 C 30.752999999999997 39.908999999999985 27.275 37.94099999999998 24.787 36.408999999999985 C 24.788 36.409 24.788 36.409 24.787 36.409 z" stroke-linecap="round" />
</g>
<g transform="matrix(1 0 0 1 0.13 4.36)" >
<linearGradient id="SVGID_a9FyWWdZBWwgkShGOE5KJb_2" gradientUnits="userSpaceOnUse" gradientTransform="matrix(0.85 0.52 -0.52 0.85 17.21 -8.82)" x1="28.357" y1="18.494" x2="13.258" y2="71.512">
<stop offset="13.3%" style="stop-color:rgb(222,222,222);stop-opacity: 1"/>
<stop offset="20.7%" style="stop-color:rgb(201,201,200);stop-opacity: 1"/>
<stop offset="36%" style="stop-color:rgb(148,146,143);stop-opacity: 1"/>
<stop offset="44.7%" style="stop-color:rgb(115,112,108);stop-opacity: 1"/>
</linearGradient>
<path style="stroke: none; stroke-width: 1; stroke-dasharray: none; stroke-linecap: butt; stroke-dashoffset: 0; stroke-linejoin: miter; stroke-miterlimit: 4; fill: url(#SVGID_a9FyWWdZBWwgkShGOE5KJb_2); fill-rule: nonzero; opacity: 1;" transform=" translate(-24.13, -28.36)" d="M 8.997 16.009 C 8.997 16.009 8.253 15.783 7.999 16.045 C 7.744999999999999 16.307000000000002 4.717 18.579 4.717 18.579 C 4.717 18.579 4.48 20.85 6.944 23.112 C 9.408 25.373999999999995 16.712 29.967999999999996 18.972 31.732999999999997 C 21.232000000000003 33.498 29.144000000000002 38.839 33.36 39.995 C 37.575 41.150999999999996 43.078 41.614 43.55 37.626 L 8.997 16.009 z" stroke-linecap="round" />
</g>
<g transform="matrix(1 0 0 1 1.46 -8.92)" >
<linearGradient id="SVGID_a9FyWWdZBWwgkShGOE5KJc_3" gradientUnits="userSpaceOnUse" gradientTransform="matrix(0.85 0.52 -0.52 0.85 17.21 -8.82)" x1="26.162" y1="6.334" x2="16.661" y2="23.198">
<stop offset="47.699999999999996%" style="stop-color:rgb(56,56,56);stop-opacity: 1"/>
<stop offset="51.7%" style="stop-color:rgb(49,49,49);stop-opacity: 1"/>
<stop offset="70.6%" style="stop-color:rgb(22,22,22);stop-opacity: 1"/>
<stop offset="87.3%" style="stop-color:rgb(6,6,6);stop-opacity: 1"/>
<stop offset="100%" style="stop-color:rgb(0,0,0);stop-opacity: 1"/>
</linearGradient>
<path style="stroke: none; stroke-width: 1; stroke-dasharray: none; stroke-linecap: butt; stroke-dashoffset: 0; stroke-linejoin: miter; stroke-miterlimit: 4; fill: url(#SVGID_a9FyWWdZBWwgkShGOE5KJc_3); fill-rule: nonzero; opacity: 1;" transform=" translate(-25.46, -15.08)" d="M 21.732 15.977 C 21.732 15.977 22.322 14.012 22.997 13.34 C 23.828 12.513 25.758 10.858 26.314 11.2 C 26.845 11.527 29.552 16.752 29.139 19.008 L 21.732 15.977 z" stroke-linecap="round" />
</g>
<g transform="matrix(1 0 0 1 2.04 -1.14)" >
<linearGradient id="SVGID_a9FyWWdZBWwgkShGOE5KJd_4" gradientUnits="userSpaceOnUse" gradientTransform="matrix(0.85 0.52 -0.52 0.85 17.21 -8.82)" x1="32.521" y1="-0.107" x2="18.62" y2="47.367">
<stop offset="39.6%" style="stop-color:rgb(56,56,56);stop-opacity: 1"/>
<stop offset="41.8%" style="stop-color:rgb(49,49,49);stop-opacity: 1"/>
<stop offset="51.800000000000004%" style="stop-color:rgb(22,22,22);stop-opacity: 1"/>
<stop offset="60.6%" style="stop-color:rgb(6,6,6);stop-opacity: 1"/>
<stop offset="67.4%" style="stop-color:rgb(0,0,0);stop-opacity: 1"/>
</linearGradient>
<path style="stroke: none; stroke-width: 1; stroke-dasharray: none; stroke-linecap: butt; stroke-dashoffset: 0; stroke-linejoin: miter; stroke-miterlimit: 4; fill: url(#SVGID_a9FyWWdZBWwgkShGOE5KJd_4); fill-rule: nonzero; opacity: 1;" transform=" translate(-26.04, -22.86)" d="M 16.807 7.108 C 16.139 6.606999999999999 15.008 6.5569999999999995 14.506999999999998 6.992 C 14.005999999999997 7.4270000000000005 15.398999999999997 8.541 11.246999999999998 11.433 C 9.841999999999999 12.411999999999999 8.959999999999997 14.434999999999999 8.508 15.923 C 8.508 15.923 7.836999999999999 16.514 15.791 22.334 C 21.323 26.381999999999998 24.734 31.269 31.547 35.391 C 38.844 39.807 43.75 40.022999999999996 43.577 36.992999999999995 C 43.433 34.471 33.64 30.032999999999994 31.329 23.697999999999993 C 29.361 18.303999999999995 30.091 17.384999999999994 27.429000000000002 15.743999999999993 C 25.07 14.290999999999993 18.582 15.916999999999993 17.112000000000002 12.267999999999994 C 16.809 11.517 17.841 7.884 16.807 7.108 z" stroke-linecap="round" />
</g>
<g transform="matrix(1 0 0 1 -0.7 -0.74)" >
<linearGradient id="SVGID_a9FyWWdZBWwgkShGOE5KJe_5" gradientUnits="userSpaceOnUse" gradientTransform="matrix(0.85 0.52 -0.75 0.71 23.25 -5.1)" x1="24.036" y1="15.071" x2="18.822" y2="32.879">
<stop offset="18.5%" style="stop-color:rgb(222,222,222);stop-opacity: 1"/>
<stop offset="28.4%" style="stop-color:rgb(208,207,207);stop-opacity: 1"/>
<stop offset="77.3%" style="stop-color:rgb(141,139,136);stop-opacity: 1"/>
<stop offset="100%" style="stop-color:rgb(115,112,108);stop-opacity: 1"/>
</linearGradient>
<path style="stroke: none; stroke-width: 1; stroke-dasharray: none; stroke-linecap: butt; stroke-dashoffset: 0; stroke-linejoin: miter; stroke-miterlimit: 4; fill: url(#SVGID_a9FyWWdZBWwgkShGOE5KJe_5); fill-rule: nonzero; opacity: 1;" transform=" translate(-23.3, -23.26)" d="M 19.6 23.368 L 18.477 22.206999999999997 L 24.553 20.751999999999995 L 25.676000000000002 21.912999999999997 L 19.6 23.368 z M 28.118 24.319 L 26.994999999999997 23.157999999999998 L 20.918999999999997 24.613 L 22.041999999999998 25.774 L 28.118 24.319 z" stroke-linecap="round" />
</g>
<g transform="matrix(1 0 0 1 4.6 -4.88)" >
<circle style="stroke: none; stroke-width: 1; stroke-dasharray: none; stroke-linecap: butt; stroke-dashoffset: 0; stroke-linejoin: miter; stroke-miterlimit: 4; fill: rgb(38,38,38); fill-rule: nonzero; opacity: 1;" cx="0" cy="0" r="0.673" />
</g>
<g transform="matrix(1 0 0 1 5.33 -4.95)" >
<linearGradient id="SVGID_a9FyWWdZBWwgkShGOE5KJf_6" gradientUnits="userSpaceOnUse" gradientTransform="matrix(0.56 0.61 -0.63 0.58 7.49 24.08)" x1="10.918" y1="-24.961" x2="13.537" y2="-22.633">
<stop offset="74.8%" style="stop-color:rgb(212,212,212);stop-opacity: 1"/>
<stop offset="82.39999999999999%" style="stop-color:rgb(177,177,177);stop-opacity: 1"/>
<stop offset="94.19999999999999%" style="stop-color:rgb(129,129,129);stop-opacity: 1"/>
<stop offset="100%" style="stop-color:rgb(110,110,110);stop-opacity: 1"/>
</linearGradient>
<path style="stroke: none; stroke-width: 1; stroke-dasharray: none; stroke-linecap: butt; stroke-dashoffset: 0; stroke-linejoin: miter; stroke-miterlimit: 4; fill: url(#SVGID_a9FyWWdZBWwgkShGOE5KJf_6); fill-rule: nonzero; opacity: 1;" transform=" translate(-29.33, -19.05)" d="M 28.34 19.407 C 28.281 19.342 28.243 19.258 28.236 19.163 C 28.221 18.934 28.394000000000002 18.731 28.624000000000002 18.708000000000002 L 29.985000000000003 18.564000000000004 C 30.215000000000003 18.541000000000004 30.414 18.709000000000003 30.430000000000003 18.938000000000002 C 30.445000000000004 19.167 30.272000000000002 19.37 30.042 19.393 L 28.681 19.537 C 28.546 19.549 28.423 19.498 28.34 19.407 z" stroke-linecap="round" />
</g>
<g transform="matrix(1 0 0 1 5.25 -2.96)" >
<circle style="stroke: none; stroke-width: 1; stroke-dasharray: none; stroke-linecap: butt; stroke-dashoffset: 0; stroke-linejoin: miter; stroke-miterlimit: 4; fill: rgb(38,38,38); fill-rule: nonzero; opacity: 1;" cx="0" cy="0" r="0.673" />
</g>
<g transform="matrix(1 0 0 1 5.98 -3.04)" >
<linearGradient id="SVGID_a9FyWWdZBWwgkShGOE5KJg_7" gradientUnits="userSpaceOnUse" gradientTransform="matrix(0.56 0.61 -0.63 0.58 7.49 24.08)" x1="13.146" y1="-24.009" x2="15.765" y2="-21.68">
<stop offset="74.8%" style="stop-color:rgb(212,212,212);stop-opacity: 1"/>
<stop offset="82.39999999999999%" style="stop-color:rgb(177,177,177);stop-opacity: 1"/>
<stop offset="94.19999999999999%" style="stop-color:rgb(129,129,129);stop-opacity: 1"/>
<stop offset="100%" style="stop-color:rgb(110,110,110);stop-opacity: 1"/>
</linearGradient>
<path style="stroke: none; stroke-width: 1; stroke-dasharray: none; stroke-linecap: butt; stroke-dashoffset: 0; stroke-linejoin: miter; stroke-miterlimit: 4; fill: url(#SVGID_a9FyWWdZBWwgkShGOE5KJg_7); fill-rule: nonzero; opacity: 1;" transform=" translate(-29.98, -20.96)" d="M 28.985 21.319 C 28.926 21.253999999999998 28.887999999999998 21.169999999999998 28.881 21.075 C 28.866 20.846 29.039 20.643 29.269000000000002 20.62 L 30.630000000000003 20.476000000000003 C 30.860000000000003 20.453000000000003 31.059 20.621000000000002 31.075000000000003 20.85 C 31.090000000000003 21.079 30.917 21.282 30.687 21.305 L 29.326 21.448999999999998 C 29.191 21.461 29.068 21.409 28.985 21.319 z" stroke-linecap="round" />
</g>
<g transform="matrix(1 0 0 1 5.98 -1.05)" >
<circle style="stroke: none; stroke-width: 1; stroke-dasharray: none; stroke-linecap: butt; stroke-dashoffset: 0; stroke-linejoin: miter; stroke-miterlimit: 4; fill: rgb(38,38,38); fill-rule: nonzero; opacity: 1;" cx="0" cy="0" r="0.673" />
</g>
<g transform="matrix(1 0 0 1 6.72 -1.12)" >
<linearGradient id="SVGID_a9FyWWdZBWwgkShGOE5KJh_8" gradientUnits="userSpaceOnUse" gradientTransform="matrix(0.56 0.61 -0.63 0.58 7.49 24.08)" x1="15.453" y1="-23.133" x2="18.073" y2="-20.805">
<stop offset="74.8%" style="stop-color:rgb(212,212,212);stop-opacity: 1"/>
<stop offset="82.39999999999999%" style="stop-color:rgb(177,177,177);stop-opacity: 1"/>
<stop offset="94.19999999999999%" style="stop-color:rgb(129,129,129);stop-opacity: 1"/>
<stop offset="100%" style="stop-color:rgb(110,110,110);stop-opacity: 1"/>
</linearGradient>
<path style="stroke: none; stroke-width: 1; stroke-dasharray: none; stroke-linecap: butt; stroke-dashoffset: 0; stroke-linejoin: miter; stroke-miterlimit: 4; fill: url(#SVGID_a9FyWWdZBWwgkShGOE5KJh_8); fill-rule: nonzero; opacity: 1;" transform=" translate(-30.72, -22.88)" d="M 29.724 23.235 C 29.665 23.169999999999998 29.627 23.086 29.62 22.991 C 29.605 22.762 29.778000000000002 22.559 30.008000000000003 22.536 L 31.369000000000003 22.392000000000003 C 31.599000000000004 22.369000000000003 31.798000000000002 22.537000000000003 31.814000000000004 22.766000000000002 C 31.829000000000004 22.995 31.656000000000002 23.198 31.426000000000002 23.221 L 30.065 23.365 C 29.93 23.377 29.806 23.326 29.724 23.235 z" stroke-linecap="round" />
</g>
<g transform="matrix(1 0 0 1 6.63 0.87)" >
<circle style="stroke: none; stroke-width: 1; stroke-dasharray: none; stroke-linecap: butt; stroke-dashoffset: 0; stroke-linejoin: miter; stroke-miterlimit: 4; fill: rgb(38,38,38); fill-rule: nonzero; opacity: 1;" cx="0" cy="0" r="0.673" />
</g>
<g transform="matrix(1 0 0 1 7.36 0.79)" >
<linearGradient id="SVGID_a9FyWWdZBWwgkShGOE5KJi_9" gradientUnits="userSpaceOnUse" gradientTransform="matrix(0.56 0.61 -0.63 0.58 7.49 24.08)" x1="17.681" y1="-22.181" x2="20.301" y2="-19.852">
<stop offset="74.8%" style="stop-color:rgb(212,212,212);stop-opacity: 1"/>
<stop offset="82.39999999999999%" style="stop-color:rgb(177,177,177);stop-opacity: 1"/>
<stop offset="94.19999999999999%" style="stop-color:rgb(129,129,129);stop-opacity: 1"/>
<stop offset="100%" style="stop-color:rgb(110,110,110);stop-opacity: 1"/>
</linearGradient>
<path style="stroke: none; stroke-width: 1; stroke-dasharray: none; stroke-linecap: butt; stroke-dashoffset: 0; stroke-linejoin: miter; stroke-miterlimit: 4; fill: url(#SVGID_a9FyWWdZBWwgkShGOE5KJi_9); fill-rule: nonzero; opacity: 1;" transform=" translate(-31.36, -24.79)" d="M 30.369 25.147 C 30.31 25.081999999999997 30.272 24.997999999999998 30.265 24.903 C 30.25 24.674 30.423000000000002 24.471 30.653000000000002 24.448 L 32.014 24.304000000000002 C 32.244 24.281000000000002 32.443000000000005 24.449 32.459 24.678 C 32.474000000000004 24.907 32.301 25.11 32.071000000000005 25.133 L 30.710000000000004 25.276999999999997 C 30.575 25.289 30.452 25.237 30.369 25.147 z" stroke-linecap="round" />
</g>
</g>
</g>
</svg>